{"title":"La Zona *2007* [DVD5] [PAL] [ESP, POL]","uid":5931229,"size":4688248832,"categoryP":"video","categoryS":"movies_dvdr","magnet":"?xt=urn:btih:a19b976a459cbb52deb5286e3e7b219686130952&amp;dn=La+Zona+%2A2007%2A+%5BDVD5%5D+%5BPAL%5D+%5BESP%2C+POL%5D&amp;tr=udp%3A%2F%2Ftracker.openbittorrent.com%3A80&amp;tr=udp%3A%2F%2Fopen.demonii.com%3A1337&amp;tr=udp%3A%2F%2Ftracker.coppersurfer.tk%3A6969&amp;tr=udp%3A%2F%2Fexodus.desync.com%3A6969","seeders":0,"leechers":1,"uploader":"albedo040","files":1,"time":1288777515,"description":"La Zona *2007* [DVD5] [PAL] [ESP, POL]\n\nGeneral information:\nCountry: Spain, Argentina, Mexico \nRelease: 3 September 2007 (Venice Film Festival)\nGenre: Drama, Thriller \nDirector: Rodrigo Pla\nScreenplay: Rodrigo Pla, Laura Santullo\nOriginal Music: Fernando Velazquez \nCinematography by: Emiliano Villanueva \nDuration: 1h 30mn\nLanguage: Spanish, Polish\nSubtitles: Polish\nRating: 7.1/10 - 2252 votes \n\nCast:\nDaniel GimÃƒÂ©nez Cacho  ...  Daniel  \nMaribel VerdÃƒÂº  ...  Mariana  \nAlan ChÃƒÂ¡vez  ...  Miguel  \nDaniel Tovar  ...  Alejandro  \nCarlos Bardem  ...  Gerardo  \nMarina de Tavira  ...  Andrea  \nMario Zaragoza  ...  Comandante Rigoberto  \nAndrÃƒÂ©s Montiel  ...  Diego  \nBlanca Guerra  ...  LucÃƒÂ­a  \nEnrique Arreola  ...  Oficial IvÃƒÂ¡n  \nGerardo Taracena  ...  Mario  \n\nPlot:\nResidents of an enclosed neighborhood in the middle of Mexico DF are shocked by a violent crime, and for one resident in particular, young Alejandro, the drama is ratcheted up when he encounters the lone kid who escaped the event and is hiding out within the neighborhood's borders. \n\nSpecifications:\nGeneral\nFormat                           : MPEG-PS\nOverall bit rate                 : 6 508 Kbps\n\nVideo\nFormat                           : MPEG Video\nFormat version                   : Version 2\nFormat profile                   : Main@Main\nFormat settings, BVOP            : Yes\nFormat settings, Matrix          : Default\nFormat settings, GOP             : M=2, N=13\nBit rate mode                    : Variable\nBit rate                         : 5 547 Kbps\nNominal bit rate                 : 8 500 Kbps\nWidth                            : 720 pixels\nHeight                           : 576 pixels\nDisplay aspect ratio             : 2.35:1\nFrame rate                       : 25.000 fps\nStandard                         : PAL\n\nAudio 1\nFormat                           : AC-3\nFormat/Info                      : Audio Coding 3\nMode extension                   : CM (complete main)\nBit rate mode                    : Constant\nBit rate                         : 384 Kbps\nChannel(s)                       : 6 channels\nChannel positions                : Front: L C R, Side: L R, LFE\nSampling rate                    : 48.0 KHz\nStream size                      : 60.4 MiB (6%)\n\nAudio 2\nFormat                           : AC-3\nFormat/Info                      : Audio Coding 3\nMode extension                   : CM (complete main)\nBit rate mode                    : Constant\nBit rate                         : 448 Kbps\nChannel(s)                       : 6 channels\nChannel positions                : Front: L C R, Side: L R, LFE\nSampling rate                    : 48.0 KHz\nStream size                      : 70.5 MiB (7%)\n\nText\nFormat                           : RLE\nFormat/Info                      : Run-length encoding\n","torrent":{"xt":"urn:btih:a19b976a459cbb52deb5286e3e7b219686130952","amp;dn":"La+Zona+%2A2007%2A+%5BDVD5%5D+%5BPAL%5D+%5BESP%2C+POL%5D","amp;tr":["udp%3A%2F%2Ftracker.openbittorrent.com%3A80","udp%3A%2F%2Fopen.demonii.com%3A1337","udp%3A%2F%2Ftracker.coppersurfer.tk%3A6969","udp%3A%2F%2Fexodus.desync.com%3A6969"],"infoHash":"a19b976a459cbb52deb5286e3e7b219686130952","infoHashBuffer":{"type":"Buffer","data":[161,155,151,106,69,156,187,82,222,181,40,110,62,123,33,150,134,19,9,82]},"announce":[],"urlList":[]}}